<?xml version="1.0" encoding="utf-8"?>
<svg viewBox="0 0 1000 1000" height="32px" width="32px" xmlns="http://www.w3.org/2000/svg">
  <defs>
    <style/>
  </defs>
  <path style="stroke: rgb(255, 255, 255); stroke-width: 20px;" d="M 674.023 884.909 C 674.023 884.909 600.079 769.642 512.974 761.602 C 425.869 753.562 413.245 731.566 358.044 726.767 C 302.843 721.968 169.294 735.362 123.692 732.623 C 78.09 729.884 59.528 710.827 60.643 692.107 C 61.758 673.387 60.912 645.057 122.559 630.08 C 184.206 615.103 252.943 632.088 294.826 618.057 C 336.709 604.026 350.996 571.2 350.646 556.813 C 350.296 542.426 363.789 513.395 304.495 461.311 C 245.201 409.227 236.325 382.567 172.103 357.407 C 107.881 332.247 75.754 290.768 81.85 266.156 C 87.946 241.544 107.361 219.69 184.125 251.431 C 260.889 283.172 369.943 380.477 389.749 398.344 C 409.555 416.211 428.082 402.455 412.241 373.143 C 396.4 343.831 408.182 330.209 292.081 263.132 C 175.98 196.055 186.296 149.289 196.205 138.096 C 206.114 126.903 234.456 100.874 294.352 146.073 C 354.248 191.272 414.933 228.25 463.577 285.612 C 512.221 342.974 517.429 347.46 544.785 387.204 C 550.428 395.402 438.96 231.351 388.395 201.333 C 337.83 171.315 344.299 125.514 374.288 120.516 C 404.277 115.518 454.397 129.432 557.011 241.003 C 659.625 352.574 654.533 393.217 663.374 402.215 C 672.215 411.213 642.698 357.699 634.149 326.636 C 625.6 295.573 627.021 285.916 587.415 251.705 C 547.809 217.494 564.375 189.328 596.652 191.424 C 628.929 193.52 659.118 204.877 699.64 296.122 C 740.162 387.367 756.311 483.778 775.983 528.412 C 795.655 573.046 913.917 728.909 956.6 748.516" transform="matrix(1, 0, 0, 1, 0, 7.105427357601002e-15)"/>
</svg>