<?xml version="1.0" encoding="utf-8"?>
<svg viewBox="0 0 1000 1000" height="32px" width="32px" xmlns="http://www.w3.org/2000/svg">
  <defs>
    <style/>
  </defs>
  <path style="stroke-width: 10px; fill: rgb(255, 255, 255); stroke: rgb(0, 0, 0);" d="M 672.956 884.348 C 672.956 884.348 599.012 769.081 511.907 761.041 C 424.802 753.001 412.178 731.005 356.977 726.206 C 301.776 721.407 168.227 734.801 122.625 732.062 C 77.023 729.323 58.461 710.266 59.576 691.546 C 60.691 672.826 59.845 644.496 121.492 629.519 C 183.139 614.542 251.876 631.527 293.759 617.496 C 335.642 603.465 351.727 569.027 351.377 554.64 C 351.027 540.253 360.218 496.779 312.295 452.403 C 264.372 408.027 216.605 384.376 163.596 348.614 C 110.587 312.852 74.687 290.207 80.783 265.595 C 86.879 240.983 106.294 219.129 183.058 250.87 C 259.822 282.611 369.99 375.295 389.796 393.162 C 409.602 411.029 413.446 393.425 413.13 378.989 C 412.814 364.553 431.067 345.089 448.525 340.729 C 465.983 336.369 500.66 335.13 521.769 378.516 C 528.189 391.712 506.16 342.861 553.521 335.48 C 600.882 328.099 619.467 367.285 621.254 373.026 C 623.041 378.767 619.224 358.872 631.542 340.001 C 643.86 321.13 697.507 313.31 723.532 385.438 C 749.557 457.566 758.535 481.595 778.207 526.229 C 797.879 570.863 912.85 728.348 955.533 747.955" transform="matrix(1, 0, 0, 1, 2.842170943040401e-14, -3.552713678800501e-15)"/>
</svg>