<?xml version="1.0" encoding="utf-8"?>
<svg viewBox="0 0 1000 1000" height="32px" width="32px" xmlns="http://www.w3.org/2000/svg">
  <defs>
    <style/>
  </defs>
  <path style="stroke-width: 10px; fill: rgb(255, 255, 255); stroke: rgb(0, 0, 0); stroke-linejoin: round;" d="M 671.796 884.157 C 671.796 884.157 597.852 768.89 510.746 760.85 C 423.641 752.81 353.216 707.969 353.216 707.969 C 353.216 707.969 323.385 698.024 271.263 554.863 C 260.609 525.599 330.81 487.2 330.81 487.2 L 394.147 602.29 L 312.685 453.148 C 295.52 412.196 318.433 387.849 331.415 380.548 C 344.397 373.247 371.87 373.99 391.676 391.857 C 411.482 409.724 412.285 393.234 411.97 378.798 C 411.654 364.362 429.907 344.898 447.365 340.538 C 464.823 336.178 499.5 334.939 520.609 378.325 C 527.029 391.521 505 342.67 552.361 335.289 C 599.722 327.908 618.307 367.094 620.094 372.835 C 621.881 378.576 618.064 358.681 630.382 339.81 C 642.7 320.939 696.347 313.119 722.372 385.247 C 748.397 457.375 757.375 481.404 777.046 526.038 C 796.719 570.672 911.69 728.157 954.373 747.764"/>
</svg>