<?xml version="1.0" encoding="utf-8"?>
<svg viewBox="0 0 1000 1000" height="32px" width="32px" xmlns="http://www.w3.org/2000/svg">
  <defs>
    <style/>
  </defs>
  <path style="fill: rgb(255, 255, 255); stroke: rgb(0, 0, 0); stroke-width: 10px;" d="M 674.023 884.909 C 674.023 884.909 600.079 769.642 512.974 761.602 C 425.869 753.562 413.245 731.566 358.044 726.767 C 302.843 721.968 169.294 735.362 123.692 732.623 C 78.09 729.884 59.528 710.827 60.643 692.107 C 61.758 673.387 60.912 645.057 122.559 630.08 C 184.206 615.103 252.943 632.088 294.826 618.057 C 336.709 604.026 350.996 571.2 350.646 556.813 C 350.296 542.426 371.301 504.779 312.007 452.695 C 252.713 400.611 230.434 379.821 171.6 350.286 C 112.766 320.751 75.754 290.768 81.85 266.156 C 87.946 241.544 107.361 219.69 184.125 251.431 C 260.889 283.172 367.261 370.523 387.067 388.39 C 406.873 406.257 424.081 400.09 412.241 373.143 C 400.401 346.196 392.784 337.311 292.081 263.132 C 191.378 188.953 179.437 170.515 188.631 143.445 C 197.825 116.375 238.14 100.889 298.036 146.088 C 357.932 191.287 408.836 217.981 443.438 262.402 C 478.04 306.823 540.563 379.06 544.785 387.204 C 549.366 396.04 446.23 249.361 384.842 204.351 C 323.454 159.341 344.299 125.514 374.288 120.516 C 404.277 115.518 449.781 141.706 540.161 241.948 C 630.541 342.19 654.533 393.217 663.374 402.215 C 672.215 411.213 643.3 355.288 629.888 326.636 C 616.476 297.984 602.97 281.098 571.606 251.837 C 540.242 222.576 565.667 207.416 580.952 207.827 C 596.237 208.238 636.609 215.093 683.794 303.374 C 730.979 391.655 762.32 486.431 786.143 528.426 C 809.966 570.421 912.958 724.918 955.641 744.525" transform="matrix(1, 0, 0, 1, 2.842170943040401e-14, -3.552713678800501e-15)"/>
</svg>