<?xml version="1.0" encoding="utf-8"?>
<svg viewBox="0 0 1000 1000" height="32px" width="32px" xmlns="http://www.w3.org/2000/svg">
  <defs>
    <style/>
  </defs>
  <path style="stroke: rgb(255, 255, 255); stroke-width: 20px;" d="M 672.956 884.348 C 672.956 884.348 599.012 769.081 511.907 761.041 C 424.802 753.001 412.178 731.005 356.977 726.206 C 301.776 721.407 168.227 734.801 122.625 732.062 C 77.023 729.323 58.461 710.266 59.576 691.546 C 60.691 672.826 59.845 644.496 121.492 629.519 C 183.139 614.542 251.876 631.527 293.759 617.496 C 335.642 603.465 349.929 570.639 349.579 556.252 C 349.229 541.865 362.722 512.834 303.428 460.75 C 244.134 408.666 224.642 388.187 171.633 352.425 C 118.624 316.663 74.687 290.207 80.783 265.595 C 86.879 240.983 106.294 219.129 183.058 250.87 C 259.822 282.611 371.263 382.325 391.069 400.192 C 410.875 418.059 427.487 407.795 411.646 378.483 C 395.805 349.171 416.468 330.342 447.481 331.047 C 478.494 331.752 508.236 357.177 535.592 396.921 C 541.235 405.119 505.832 343.281 550.684 329.28 C 595.536 315.279 637.795 388.596 646.636 397.594 C 655.477 406.592 625.024 368.469 631.247 347.375 C 637.47 326.281 694.034 311.336 728.883 399.413 C 763.732 487.49 755.244 483.217 774.916 527.851 C 794.588 572.485 912.85 728.348 955.533 747.955"/>
</svg>