<svg version="1.2" xmlns="http://www.w3.org/2000/svg" viewBox="0 0 1050 1080" width="1050" height="1080">
	<title>spike head-ai</title>
	<style>
		.s0 { fill: #ffffff } 
	</style>
	<g id="Layer 2">
	</g>
	<g id="Layer 1">
		<g id="&lt;Group&gt;">
			<path id="&lt;Path&gt;" class="s0" d="m920.8 792.8c0 0-198.2-117.7-246.4-75-48.2 42.7 44.9 253.6 44.9 253.6 0 0-103.1-206.2-166.7-196.3-63.6 9.9-99.3 237.6-99.3 237.6 0 0 24.7-229.1-34.1-255.2-58.9-26.1-212 146.2-212 146.2 0 0 144.7-179.4 109.2-233.2-35.4-53.7-257.3 8.4-257.3 8.4 0 0 218.7-72.7 218-137.1-0.8-64.4-221.1-132.1-221.1-132.1 0 0 223.3 57.1 257.5 2.5 34.2-54.5-114.6-230.6-114.6-230.6 0 0 157.1 168.8 215.3 141.3 58.3-27.4 28.3-255.9 28.3-255.9 0 0 40.9 226.8 104.7 235.3 63.8 8.4 162.2-200 162.2-200 0 0-88.3 212.9-39.1 254.5 49.1 41.6 244.6-80.6 244.6-80.6 0 0-189.4 131.4-170.6 193 18.9 61.5 249.3 64.4 249.3 64.4 0 0-230.3 8.2-247.7 70.2-17.5 61.9 174.9 189 174.9 189z"/>
		</g>
		<g id="&lt;Group&gt;">
		</g>
		<g id="&lt;Group&gt;">
		</g>
		<g id="&lt;Group&gt;">
		</g>
	</g>
</svg>