<svg version="1.2" xmlns="http://www.w3.org/2000/svg" viewBox="0 0 1080 1080" width="1080" height="1080">
	<style>
		.s0 { fill: #000000 } 
	</style>
	<path id="&lt;Compound Path&gt;" fill-rule="evenodd" class="s0" d="m613.28 488.93c-5.32 31.92 37.02 84.4 44.63 91.28q17.8 16.1 36.18 31.52c40.32 33.8 70.09 72.65 63.63 129.46-0.74 6.52-0.03 13.19-0.21 19.79-1.47 54.72 0.4 108.97 12.83 162.83 6.08 26.36 8.64 54.11 8.32 81.17-0.28 23.48 0.33 46.45 2.53 69.91 4.41 47.01 4.3 94.44 7.37 141.61 0.69 10.48 4.93 21.9 10.86 30.62 9.41 13.83 13.49 27.37 9.49 43.75-1.5 6.16-0.93 12.93-0.62 19.39 0.48 10.26 1.97 20.48 2.27 30.74 1.25 42.04-0.69 84.43 4.32 125.99 3.31 27.47 2.83 52.63-5.58 78.75-10.39 32.26-34.22 52.12-68.46 51.76-12.59-0.13-14.23 5.06-15.3 15.65-3.71 36.92-8.5 73.73-13.07 110.56-3.65 29.39-10.36 58.73-10.58 88.13-0.21 29.89 4.11 60.15 9.71 89.63 5.12 26.93-1.05 50.03-13.87 72.86-3.85 6.85-8.66 14.87-8.26 22.08 2.1 37.51-8.44 72.66-17.31 108.29-15.25 61.2-30.46 122.43-44.4 183.94-8.92 39.36-15.72 79.22-23.05 118.93-2.03 11.02-4.72 22.58-3.39 33.44 4.46 36.2 19.95 68.17 46.89 92.5 20.66 18.66 44.85 33.37 62.12 55.95 9.59 12.53 21.97 23.42 29.33 37.07 18.47 34.29-0.22 71.94-38.39 78.64-11.85 2.08-25 2.72-36.5-0.18-41.43-10.43-81.34-24.63-110.12-59.03-21.92-26.18-52.71-32.08-87.01-38.43 3.12 8.25 4.45 13.81 7.16 18.58 16.44 28.98 33.45 57.65 49.78 86.7 13.22 23.53 19.71 49.1 16.74 75.99-3.13 28.36-26.7 45.66-63.16 46.92-61.85 2.12-105.65-29.02-137.71-78.57-19.62-30.32-35.98-62.74-55.03-93.46-10.04-16.2-14.93-32.79-16.04-51.75-1.14-19.58-3.67-39.48-8.92-58.32-10.01-35.89-16.22-72.16 1.71-106.06 15.66-29.61 15.06-59.65 11.53-90.37-4.72-41.03-13.31-81.68-16.7-122.79-3.47-42.11-2.45-84.59-3.82-126.89-0.92-28.2-3.06-56.33 7.25-83.65 2.43-6.41 3.41-14.13 2.52-20.91-3.85-29.49 6.22-55.51 17.92-81.51 3.56-7.92 5.48-16.98 6.24-25.68 1.83-21.02 3.16-42.14 3.44-63.23 0.17-13.02 0.1-26.67-3.5-38.97-8.18-27.96-18.54-55.29-28.13-82.83-12.33-35.37-4.12-68.33 11.18-100.68 12.32-26.04 21.02-53.99 11.39-81.81-15.26-44.05-16.41-88.7-12.42-133.96 3.08-34.87 3.92-68.69-11-101.93-16.25-36.2-22.62-74.89-18.56-114.58 1.45-14.21-0.41-26.11-7.85-38.68-4.33-7.31-4.95-18.44-3.53-27.27 6.56-40.9 2.05-81.53-0.51-122.32-1.11-17.69-0.52-35.61 0.85-53.31 1.73-22.51 5.38-44.87 7.47-67.36 0.77-8.32 2.02-18.06-1.35-25.03-15.09-31.19-10.69-62.46 1.5-91.83 13.47-32.43 29.96-63.97 48.47-93.83 12.99-20.96 32.44-37.8 47.39-57.7 16.67-22.2 37.39-38.1 62.86-48.57 7.54-3.1 14.14-8.32 23.48-12.58 40.47-18.44 57.87-61.79 57.87-61.79l68.56-19.04c0 0 70.14 21.01 68.56 30.47zm110 954.06c0 10.74-0.34 21.48 0.09 32.2 0.44 11.2 1.62 22.36 2.58 34.87 20.25-10.44 10.29-35.15-2.67-67.07z"/>
	<path id="&lt;Path&gt;" class="s0" d="m776.15 522.61c0 0-111.3-99.99-147.37-78.89-36.07 21.1-3.48 167.12-3.48 167.12 0 0-39.56-144.29-81.31-146.05-41.76-1.75-93.28 138.72-93.28 138.72 0 0 44.72-142.78 10.55-166.83-34.18-24.05-153.47 66.27-153.47 66.27 0 0 114.82-95.94 99.07-134.64-15.75-38.71-164.93-27.23-164.93-27.23 0 0 148.46-18.63 156.13-59.71 7.68-41.07-124.02-112.07-124.02-112.07 0 0 134.96 64.59 163.62 34.19 28.67-30.41-43.75-161.34-43.75-161.34 0 0 78.62 127.3 119.18 117.22 40.55-10.08 50.41-159.37 50.41-159.37 0 0-2.68 149.59 36.88 163.04 39.57 13.45 128.58-106.81 128.58-106.81 0 0-83.14 124.39-57.12 157.09 26.02 32.7 165.92-20.34 165.92-20.34 0 0-137.19 59.7-132.99 101.27 4.21 41.58 150.58 72.59 150.58 72.59 0 0-147.69-23.95-166.63 13.3-18.94 37.25 87.43 142.47 87.43 142.47z"/>
</svg>